<svg width="1024" height="1024" viewBox="0 0 1024 1024" xmlns="http://www.w3.org/2000/svg">
  <defs>
    <linearGradient id="bg" x1="0" y1="0" x2="0" y2="1" gradientUnits="objectBoundingBox">
      <stop offset="0%" stop-color="#14141f"/>
      <stop offset="100%" stop-color="#0b0b12"/>
    </linearGradient>
    <linearGradient id="topSheen" x1="0" y1="0" x2="0" y2="1" gradientUnits="objectBoundingBox">
      <stop offset="0%" stop-color="#ffffff" stop-opacity="0.055"/>
      <stop offset="100%" stop-color="#ffffff" stop-opacity="0"/>
    </linearGradient>
  </defs>

  <!-- Squircle inset 120px -->
  <rect x="120" y="120" width="784" height="784" rx="172" fill="url(#bg)"/>
  <rect x="120" y="120" width="784" height="240" rx="172" fill="url(#topSheen)"/>

  <!--
    Content ~50% of squircle (784):
      Width: 392px   Margins: 316px from canvas edge
      Marker: 40px  Gap: 10px  Bar: 342px

      Row height: 60px  Gap: 34px  Total: 248px
      Start Y: (1024-248)/2 = 388
      Rows: 388 / 482 / 576   center=512 ✓
  -->

  <!-- ── Context row  y=388 ── -->
  <rect x="316" y="388" width="40" height="60" rx="8" fill="#35354e"/>
  <circle cx="336" cy="418" r="5" fill="#7878a0"/>

  <rect x="366" y="388" width="342" height="60" rx="8" fill="#1b1b2c"/>
  <rect x="384" y="405" width="161" height="6" rx="3" fill="#2c2c44"/>
  <rect x="384" y="418" width="104" height="6" rx="3" fill="#2c2c44"/>
  <rect x="384" y="431" width="131" height="6" rx="3" fill="#2c2c44"/>

  <!-- ── Add row  y=482 ── -->
  <rect x="316" y="482" width="40" height="60" rx="8" fill="#4ade80"/>
  <rect x="325" y="509" width="16" height="5" rx="2" fill="#0c2a16"/>
  <rect x="331" y="500" width="5" height="20" rx="2" fill="#0c2a16"/>

  <rect x="366" y="482" width="342" height="60" rx="8" fill="#0c2016"/>
  <rect x="366" y="482" width="4" height="60" rx="2" fill="#4ade80" opacity="0.5"/>
  <rect x="384" y="499" width="195" height="6" rx="3" fill="#153624"/>
  <rect x="384" y="512" width="140" height="6" rx="3" fill="#153624"/>
  <rect x="384" y="525" width="167" height="6" rx="3" fill="#153624"/>

  <!-- ── Delete row  y=576 ── -->
  <rect x="316" y="576" width="40" height="60" rx="8" fill="#f87171"/>
  <rect x="325" y="603" width="16" height="5" rx="2" fill="#2a0808"/>

  <rect x="366" y="576" width="342" height="60" rx="8" fill="#200c0c"/>
  <rect x="366" y="576" width="4" height="60" rx="2" fill="#f87171" opacity="0.5"/>
  <rect x="384" y="593" width="149" height="6" rx="3" fill="#361414"/>
  <rect x="384" y="606" width="95" height="6" rx="3" fill="#361414"/>
  <rect x="384" y="619" width="121" height="6" rx="3" fill="#361414"/>

</svg>
